<!-- <svg xmlns="http://www.w3.org/2000/svg" viewBox="0 0 512 512"><path d="M279.135 512c78.756 0 150.982-35.804 198.844-94.775 28.27-34.831-2.558-85.722-46.249-77.401-82.348 15.683-158.272-47.268-158.272-130.792 0-48.424 26.06-92.292 67.434-115.836 38.745-22.05 28.999-80.788-15.022-88.919A257.936 257.936 0 0 0 279.135 0c-141.36 0-256 114.575-256 256 0 141.36 114.576 256 256 256zm0-464c12.985 0 25.689 1.201 38.016 3.478-54.76 31.163-91.693 90.042-91.693 157.554 0 113.848 103.641 199.2 215.252 177.944C402.574 433.964 344.366 464 279.135 464c-114.875 0-208-93.125-208-208s93.125-208 208-208z"/></svg> -->

<svg xmlns='http://www.w3.org/2000/svg' viewBox='0 0 48 48'><path d='M33.3 33.2c-5.1 5.1-13.3 5.1-18.4 0s-5.1-13.3 0-18.4c1.3-1.3 3-2.4 4.9-3 .6-.2 1.3-.1 1.7.4.4.4.6 1.1.4 1.7-1.3 3.6-.4 7.5 2.3 10.2s6.6 3.5 10.2 2.3c.6-.2 1.2-.1 1.7.4.4.4.6 1.1.4 1.7-.8 1.8-1.9 3.4-3.2 4.7zm-16.1-2.3c4.1 4.1 11 3.7 14.6-.8-3.7.2-7.3-1.1-9.9-3.8-2.7-2.7-4-6.3-3.8-9.9-4.4 3.3-5.1 10.1-.9 14.5z' fill='#FFF'/></svg>
