<svg width="1110" height="749" viewBox="0 0 1110 749" fill="none" xmlns="http://www.w3.org/2000/svg">
<g clip-path="url(#clip0)">
<path d="M1106.75 540.58C1106.75 584.95 862.51 748.34 557.48 748.34C252.45 748.34 12.3398 574.22 12.3398 529.85C12.3398 485.48 252.45 587.64 557.48 587.64C862.51 587.64 1106.75 496.17 1106.75 540.58Z" fill="#424C63"/>
<path d="M1109.78 522.87C1109.78 523.46 1109.78 524.05 1109.78 524.65C1109.11 543.09 1098.84 561.43 1080.1 574.38C1060.22 588.1 1033.56 595.32 1006.19 599.93C1001.91 600.65 997.61 601.3 993.32 601.93C991.13 602.23 988.95 602.53 986.78 602.81C925.85 610.81 863.64 612.34 801.72 613.81C736.95 615.41 672.12 616.99 607.28 617.81L594.42 617.96C496.04 619.02 397.7 618.13 299.68 612.55C269.26 610.83 238.54 608.55 208.38 604.71C204.08 604.183 199.794 603.607 195.52 602.98C155.52 597.25 116.71 588.46 81.3502 574.19C73.0031 570.858 64.8383 567.086 56.8902 562.89C34.6802 551.1 15.9502 536.19 6.68024 517.89C1.28779 507.161 -0.932401 495.117 0.280243 483.17C0.676854 478.827 1.4226 474.523 2.51024 470.3C5.29828 459.851 9.55041 449.848 15.1402 440.59C29.5802 416.17 51.2702 394.28 69.9702 371.35C109.89 322.48 135.89 260.73 99.0502 210.64C88.4802 196.25 73.2002 183.64 64.5902 168.59C59.9843 160.46 57.1107 151.465 56.1502 142.17C55.6828 137.897 55.5058 133.597 55.6202 129.3C56.0287 119.266 57.2832 109.284 59.3702 99.46C65.3702 68.74 76.5802 35.62 111.2 16.46C134.83 3.38005 164.95 -0.679954 195.49 0.0900461C199.777 0.190046 204.064 0.390045 208.35 0.690045C220.06 1.46004 231.7 2.88004 242.94 4.69004C312.38 15.78 376.47 38.95 441.17 59.87C490.43 75.79 541.45 90.6801 594.39 97.7801C598.67 98.3501 602.95 98.88 607.25 99.34C619.66 100.7 632.18 101.6 644.8 101.97C707.61 103.77 780.89 90.17 822.6 54.85C862.89 20.71 938.45 17.96 993.29 38.35L994.11 38.66C998.237 40.2334 1002.24 41.9267 1006.11 43.74C1046.52 62.74 1073.59 95.28 1077.41 129.33C1077.89 133.559 1078 137.821 1077.75 142.07C1077.76 142.113 1077.76 142.157 1077.75 142.2C1075.13 184.09 1040.89 219.27 1006.12 254.51C1001.82 258.86 997.51 263.21 993.25 267.59C981.97 279.17 971.04 290.84 961.56 302.85C957.231 308.294 953.25 314.005 949.64 319.95C946.323 325.433 943.489 331.195 941.17 337.17C938.725 343.355 937.153 349.851 936.5 356.47C935.526 365.958 937.259 375.527 941.5 384.07L941.59 384.27C950.87 402.67 970.51 415.71 993.25 427.27C997.44 429.41 1001.75 431.49 1006.12 433.55C1030.78 445.19 1057.35 456 1077.55 470.37C1083 474.157 1088.08 478.442 1092.73 483.17C1094.62 485.131 1096.41 487.19 1098.09 489.34C1105.47 498.659 1109.57 510.147 1109.77 522.03C1109.78 522.33 1109.78 522.6 1109.78 522.87Z" fill="#C2C8D6"/>
<path d="M1109.78 522.87C1109.78 523.46 1109.78 524.05 1109.78 524.65C1109.11 543.09 1098.84 561.43 1080.1 574.38C1060.22 588.1 1033.56 595.32 1006.19 599.93C1001.91 600.65 997.61 601.3 993.32 601.93C991.13 602.23 988.95 602.53 986.78 602.81C925.85 610.81 863.64 612.34 801.72 613.81C736.95 615.41 672.12 616.99 607.28 617.81L594.42 617.96C496.04 619.02 397.7 618.13 299.68 612.55C269.26 610.83 238.54 608.55 208.38 604.71C204.08 604.183 199.794 603.607 195.52 602.98C155.52 597.25 116.71 588.46 81.3502 574.19C73.0031 570.858 64.8383 567.086 56.8902 562.89C34.6802 551.1 15.9502 536.19 6.68024 517.89C1.28779 507.161 -0.932401 495.117 0.280243 483.17C0.676854 478.827 1.4226 474.523 2.51024 470.3C5.29828 459.851 9.55041 449.848 15.1402 440.59C29.5802 416.17 51.2702 394.28 69.9702 371.35C109.89 322.48 135.89 260.73 99.0502 210.64C88.4802 196.25 73.2002 183.64 64.5902 168.59C59.9843 160.46 57.1107 151.465 56.1502 142.17C55.6828 137.897 55.5058 133.597 55.6202 129.3C56.0287 119.266 57.2832 109.284 59.3702 99.46C65.3702 68.74 76.5802 35.62 111.2 16.46C134.83 3.38005 164.95 -0.679954 195.49 0.0900461C199.777 0.190046 204.064 0.390045 208.35 0.690045C220.06 1.46004 231.7 2.88004 242.94 4.69004C312.38 15.78 376.47 38.95 441.17 59.87C490.43 75.79 541.45 90.6801 594.39 97.7801C598.67 98.3501 602.95 98.88 607.25 99.34C619.66 100.7 632.18 101.6 644.8 101.97C707.61 103.77 780.89 90.17 822.6 54.85C862.89 20.71 938.45 17.96 993.29 38.35L994.11 38.66C998.237 40.2334 1002.24 41.9267 1006.11 43.74C1046.52 62.74 1073.59 95.28 1077.41 129.33C1077.89 133.559 1078 137.821 1077.75 142.07C1077.76 142.113 1077.76 142.157 1077.75 142.2C1075.13 184.09 1040.89 219.27 1006.12 254.51C1001.82 258.86 997.51 263.21 993.25 267.59C981.97 279.17 971.04 290.84 961.56 302.85C957.231 308.294 953.25 314.005 949.64 319.95C946.323 325.433 943.489 331.195 941.17 337.17C938.725 343.355 937.153 349.851 936.5 356.47C935.526 365.958 937.259 375.527 941.5 384.07L941.59 384.27C950.87 402.67 970.51 415.71 993.25 427.27C997.44 429.41 1001.75 431.49 1006.12 433.55C1030.78 445.19 1057.35 456 1077.55 470.37C1083 474.157 1088.08 478.442 1092.73 483.17C1094.62 485.131 1096.41 487.19 1098.09 489.34C1105.47 498.659 1109.57 510.147 1109.77 522.03C1109.78 522.33 1109.78 522.6 1109.78 522.87Z" fill="url(#paint0_linear)"/>
<path d="M241.32 75.5601C243.391 75.5601 245.07 73.8811 245.07 71.8101C245.07 69.739 243.391 68.0601 241.32 68.0601C239.249 68.0601 237.57 69.739 237.57 71.8101C237.57 73.8811 239.249 75.5601 241.32 75.5601Z" fill="#E7EFFD"/>
<path d="M121.22 68.0501C123.291 68.0501 124.97 66.3711 124.97 64.3001C124.97 62.229 123.291 60.55 121.22 60.55C119.149 60.55 117.47 62.229 117.47 64.3001C117.47 66.3711 119.149 68.0501 121.22 68.0501Z" fill="#E7EFFD"/>
<path d="M283.68 73.42C284.569 73.42 285.29 72.6991 285.29 71.81C285.29 70.9208 284.569 70.2 283.68 70.2C282.791 70.2 282.07 70.9208 282.07 71.81C282.07 72.6991 282.791 73.42 283.68 73.42Z" fill="#E7EFFD"/>
<path d="M163.04 69.67C163.929 69.67 164.65 68.9491 164.65 68.06C164.65 67.1708 163.929 66.45 163.04 66.45C162.151 66.45 161.43 67.1708 161.43 68.06C161.43 68.9491 162.151 69.67 163.04 69.67Z" fill="#E7EFFD"/>
<path d="M161.44 182.12C162.329 182.12 163.05 181.399 163.05 180.51C163.05 179.621 162.329 178.9 161.44 178.9C160.551 178.9 159.83 179.621 159.83 180.51C159.83 181.399 160.551 182.12 161.44 182.12Z" fill="#E7EFFD"/>
<path d="M904.01 97.14C904.899 97.14 905.62 96.4192 905.62 95.53C905.62 94.6409 904.899 93.92 904.01 93.92C903.121 93.92 902.4 94.6409 902.4 95.53C902.4 96.4192 903.121 97.14 904.01 97.14Z" fill="#E7EFFD"/>
<path d="M358.74 98.62C359.629 98.62 360.35 97.8992 360.35 97.01C360.35 96.1208 359.629 95.4 358.74 95.4C357.851 95.4 357.13 96.1208 357.13 97.01C357.13 97.8992 357.851 98.62 358.74 98.62Z" fill="#E7EFFD"/>
<path d="M824.66 95.4001C825.549 95.4001 826.27 94.6792 826.27 93.7901C826.27 92.9009 825.549 92.1801 824.66 92.1801C823.771 92.1801 823.05 92.9009 823.05 93.7901C823.05 94.6792 823.771 95.4001 824.66 95.4001Z" fill="#E7EFFD"/>
<path d="M1027.33 100.23C1028.22 100.23 1028.94 99.5092 1028.94 98.62C1028.94 97.7308 1028.22 97.01 1027.33 97.01C1026.44 97.01 1025.72 97.7308 1025.72 98.62C1025.72 99.5092 1026.44 100.23 1027.33 100.23Z" fill="#E7EFFD"/>
<path d="M1109.78 522.87C1109.78 523.46 1109.78 524.05 1109.78 524.65C1109.27 543.23 1098.98 561.76 1080.1 574.8C1060.22 588.52 1033.56 595.74 1006.19 600.35C1001.91 601.07 997.61 601.72 993.32 602.35C991.13 602.65 988.95 602.95 986.78 603.23C971.78 605.23 956.7 606.76 941.57 608.04C921.27 609.76 900.87 610.95 880.45 611.83C854.23 612.98 827.96 613.63 801.72 614.28C750.43 615.54 699.1 616.8 647.72 617.67L629.49 617.97L607.25 618.27L594.39 618.42C513.39 619.28 432.51 618.84 351.77 615.54C346.397 615.327 341.033 615.093 335.68 614.84C323.68 614.313 311.68 613.703 299.68 613.01C275.63 611.65 251.39 609.93 227.41 607.38C221.05 606.713 214.717 605.977 208.41 605.17C204.11 604.643 199.823 604.067 195.55 603.44C190.79 602.773 186.05 602.047 181.33 601.26C146.33 595.54 112.54 587.26 81.3801 574.64C73.0257 571.291 64.8514 567.509 56.8901 563.31V387.31C61.3301 382.16 65.7401 377.01 69.9801 371.8C75.0801 365.54 79.9801 359.09 84.4801 352.47H181.28V472.82H351.78V423.96H629.49V319.96H949.89C946.636 325.267 943.829 330.837 941.5 336.61V337.17H941.13C938.685 343.355 937.113 349.851 936.46 356.47C935.485 365.958 937.219 375.527 941.46 384.07V384.49L941.55 384.69C950.83 403.09 970.47 416.13 993.21 427.69C997.4 429.83 1001.71 431.91 1006.08 433.97C1030.49 445.49 1056.79 456.21 1076.91 470.37L1077.51 470.79C1082.81 474.465 1087.76 478.608 1092.32 483.17C1092.47 483.31 1092.6 483.45 1092.73 483.59C1094.62 485.551 1096.41 487.61 1098.09 489.76C1105.38 498.968 1109.47 510.292 1109.77 522.03C1109.78 522.33 1109.78 522.6 1109.78 522.87Z" fill="#A03C4D"/>
<path opacity="0.3" d="M1109.78 522.87C1109.78 523.46 1109.78 524.05 1109.78 524.65C1109.27 543.23 1098.98 561.76 1080.1 574.8C1060.22 588.52 1033.56 595.74 1006.19 600.35C1001.91 601.07 997.61 601.72 993.32 602.35C991.13 602.65 988.95 602.95 986.78 603.23C971.78 605.23 956.7 606.76 941.57 608.04C921.27 609.76 900.87 610.95 880.45 611.83C854.23 612.98 827.96 613.63 801.72 614.28C750.43 615.54 699.1 616.8 647.72 617.67L629.49 617.97L607.25 618.27L594.39 618.42C513.39 619.28 432.51 618.84 351.77 615.54C346.397 615.327 341.033 615.093 335.68 614.84C323.68 614.313 311.68 613.703 299.68 613.01C275.63 611.65 251.39 609.93 227.41 607.38C221.05 606.713 214.717 605.977 208.41 605.17C204.11 604.643 199.823 604.067 195.55 603.44C190.79 602.773 186.05 602.047 181.33 601.26C146.33 595.54 112.54 587.26 81.3801 574.64C73.0257 571.291 64.8514 567.509 56.8901 563.31V387.31C61.3301 382.16 65.7401 377.01 69.9801 371.8C75.0801 365.54 79.9801 359.09 84.4801 352.47H181.28V472.82H351.78V423.96H629.49V319.96H949.89C946.636 325.267 943.829 330.837 941.5 336.61V337.17H941.13C938.685 343.355 937.113 349.851 936.46 356.47C935.485 365.958 937.219 375.527 941.46 384.07V384.49L941.55 384.69C950.83 403.09 970.47 416.13 993.21 427.69C997.4 429.83 1001.71 431.91 1006.08 433.97C1030.49 445.49 1056.79 456.21 1076.91 470.37L1077.51 470.79C1082.81 474.465 1087.76 478.608 1092.32 483.17C1092.47 483.31 1092.6 483.45 1092.73 483.59C1094.62 485.551 1096.41 487.61 1098.09 489.76C1105.38 498.968 1109.47 510.292 1109.77 522.03C1109.78 522.33 1109.78 522.6 1109.78 522.87Z" fill="black"/>
<path opacity="0.4" d="M117.29 376.79H88.6899V396.09H117.29V376.79Z" fill="black"/>
<path opacity="0.4" d="M163.05 376.79H134.45V396.09H163.05V376.79Z" fill="black"/>
<path opacity="0.4" d="M688.48 337.12H659.88V356.42H688.48V337.12Z" fill="black"/>
<path opacity="0.4" d="M765.69 337.12H737.09V356.42H765.69V337.12Z" fill="black"/>
<path opacity="0.4" d="M848.61 337.12H820.01V356.42H848.61V337.12Z" fill="black"/>
<path opacity="0.4" d="M688.48 396.1H659.88V415.4H688.48V396.1Z" fill="black"/>
<path opacity="0.4" d="M765.69 396.1H737.09V415.4H765.69V396.1Z" fill="black"/>
<path d="M848.61 396.1H820.01V415.4H848.61V396.1Z" fill="#E5566E"/>
<path opacity="0.4" d="M688.48 455.07H659.88V474.37H688.48V455.07Z" fill="black"/>
<path opacity="0.4" d="M765.69 455.07H737.09V474.37H765.69V455.07Z" fill="black"/>
<path opacity="0.4" d="M848.61 455.07H820.01V474.37H848.61V455.07Z" fill="black"/>
<path opacity="0.4" d="M688.48 514.05H659.88V533.35H688.48V514.05Z" fill="black"/>
<path opacity="0.4" d="M765.69 514.05H737.09V533.35H765.69V514.05Z" fill="black"/>
<path opacity="0.4" d="M848.61 514.05H820.01V533.35H848.61V514.05Z" fill="black"/>
<path opacity="0.4" d="M688.48 573.03H659.88V592.33H688.48V573.03Z" fill="black"/>
<path opacity="0.4" d="M765.69 573.03H737.09V592.33H765.69V573.03Z" fill="black"/>
<path opacity="0.4" d="M848.61 573.03H820.01V592.33H848.61V573.03Z" fill="black"/>
<path opacity="0.4" d="M941.17 337.17C938.725 343.355 937.153 349.851 936.5 356.47H920.81V337.17H941.17Z" fill="black"/>
<path d="M949.41 396.1H920.81V415.4H949.41V396.1Z" fill="#E5566E"/>
<path opacity="0.4" d="M949.41 455.07H920.81V474.37H949.41V455.07Z" fill="black"/>
<path opacity="0.4" d="M949.41 514.05H920.81V533.35H949.41V514.05Z" fill="black"/>
<path opacity="0.4" d="M949.41 573.03H920.81V592.33H949.41V573.03Z" fill="black"/>
<path opacity="0.4" d="M276 487.66H247.4V506.96H276V487.66Z" fill="black"/>
<path opacity="0.4" d="M276 530.93H247.4V550.23H276V530.93Z" fill="black"/>
<path opacity="0.4" d="M276 574.19H247.4V593.49H276V574.19Z" fill="black"/>
<path opacity="0.4" d="M117.29 427.23H88.6899V446.53H117.29V427.23Z" fill="black"/>
<path opacity="0.4" d="M163.05 427.23H134.45V446.53H163.05V427.23Z" fill="black"/>
<path opacity="0.4" d="M117.29 477.67H88.6899V496.97H117.29V477.67Z" fill="black"/>
<path opacity="0.4" d="M163.05 477.67H134.45V496.97H163.05V477.67Z" fill="black"/>
<path opacity="0.4" d="M117.29 528.11H88.6899V547.41H117.29V528.11Z" fill="black"/>
<path opacity="0.4" d="M163.05 528.11H134.45V547.41H163.05V528.11Z" fill="black"/>
<mask id="mask0" mask-type="alpha" maskUnits="userSpaceOnUse" x="165" y="82" width="223" height="648">
<path d="M335.889 703.934C328.706 643.125 302.186 415.36 302.186 355.331C302.186 292.93 322.759 222.631 326.951 207.225H332.086C332.086 207.225 344.664 207.225 350.547 205.145C353.862 203.943 358.802 201.018 362.54 198.645H375.605L382.17 185.027H387.045V177.585H372.875V174.205H372.94C372.94 174.205 360.069 167.314 342.909 163.382C325.716 159.352 310.051 155.484 310.051 155.484C310.051 155.484 305.111 152.007 308.621 150.024C312.131 148.074 316.518 145.604 316.518 143.654C316.518 141.639 316.518 140.696 316.518 140.696H310.993C309.921 138.324 307.646 134.619 302.543 131.076C297.018 127.176 288.893 124.836 284.05 123.796V82H276.803V123.828C271.927 124.836 263.737 127.176 258.277 131.076C253.175 134.619 250.867 138.324 249.762 140.664H244.302C244.302 140.664 244.302 141.606 244.302 143.621C244.302 145.604 248.657 148.074 252.199 149.992C255.775 152.007 250.802 155.484 250.802 155.484C250.802 155.484 235.072 159.352 217.976 163.349C200.816 167.314 187.913 174.205 187.913 174.205V177.585H173.808V185.027H181.77L188.173 198.645H198.313C202.051 200.985 207.056 203.943 210.306 205.113C216.254 207.258 228.701 207.258 228.701 207.258H232.569C236.372 226.888 253.695 322.083 247.942 395.307C244.984 433.008 214.011 648.066 205.853 703.934H165V730H374.76V703.934H335.889V703.934ZM201.953 190.065V182.492H361.597V190.065H201.953ZM235.364 703.934C241.312 651.511 262.73 458.651 265.395 386.37C268.19 312.658 253.012 227.051 249.274 207.258H265.362C266.11 222.826 268.677 269.139 271.245 306.125C273.975 345.841 285.025 634.513 287.755 703.967L235.364 703.934ZM289.803 292.247C282.36 292.247 280.183 225.523 279.76 207.258H308.978C307.841 217.918 299.456 292.345 289.803 292.247Z" fill="#983949"/>
</mask>
<g mask="url(#mask0)">
<path d="M1081.78 522.87C1081.78 523.46 1081.78 524.05 1081.78 524.65C1081.11 543.09 1070.84 561.43 1052.1 574.38C1032.22 588.1 1005.56 595.32 978.19 599.93C973.91 600.65 969.61 601.3 965.32 601.93C963.13 602.23 960.95 602.53 958.78 602.81C897.85 610.81 835.64 612.34 773.72 613.81C708.95 615.41 644.12 616.99 579.28 617.81L566.42 617.96C468.04 619.02 369.7 618.13 271.68 612.55C241.26 610.83 210.54 608.55 180.38 604.71C176.08 604.183 171.794 603.607 167.52 602.98C127.52 597.25 88.7102 588.46 53.3502 574.19C45.0031 570.858 36.8383 567.086 28.8902 562.89C6.68024 551.1 -12.0498 536.19 -21.3198 517.89C-26.7122 507.161 -28.9324 495.117 -27.7198 483.17C-27.3231 478.827 -26.5774 474.523 -25.4898 470.3C-22.7017 459.851 -18.4496 449.848 -12.8598 440.59C1.58024 416.17 23.2702 394.28 41.9702 371.35C81.8902 322.48 107.89 260.73 71.0502 210.64C60.4802 196.25 45.2002 183.64 36.5902 168.59C31.9843 160.46 29.1107 151.465 28.1502 142.17C27.6828 137.897 27.5058 133.597 27.6202 129.3C28.0287 119.266 29.2832 109.284 31.3702 99.46C37.3702 68.74 48.5802 35.62 83.2002 16.46C106.83 3.38005 136.95 -0.679954 167.49 0.0900461C171.777 0.190046 176.064 0.390045 180.35 0.690045C192.06 1.46004 203.7 2.88004 214.94 4.69004C284.38 15.78 348.47 38.95 413.17 59.87C462.43 75.79 513.45 90.6801 566.39 97.7801C570.67 98.3501 574.95 98.88 579.25 99.34C591.66 100.7 604.18 101.6 616.8 101.97C679.61 103.77 752.89 90.17 794.6 54.85C834.89 20.71 910.45 17.96 965.29 38.35L966.11 38.66C970.237 40.2334 974.237 41.9267 978.11 43.74C1018.52 62.74 1045.59 95.28 1049.41 129.33C1049.89 133.559 1050 137.821 1049.75 142.07C1049.76 142.113 1049.76 142.157 1049.75 142.2C1047.13 184.09 1012.89 219.27 978.12 254.51C973.82 258.86 969.51 263.21 965.25 267.59C953.97 279.17 943.04 290.84 933.56 302.85C929.231 308.294 925.25 314.005 921.64 319.95C918.323 325.433 915.489 331.195 913.17 337.17C910.725 343.355 909.153 349.851 908.5 356.47C907.526 365.958 909.259 375.527 913.5 384.07L913.59 384.27C922.87 402.67 942.51 415.71 965.25 427.27C969.44 429.41 973.75 431.49 978.12 433.55C1002.78 445.19 1029.35 456 1049.55 470.37C1055 474.157 1060.08 478.442 1064.73 483.17C1066.62 485.131 1068.41 487.19 1070.09 489.34C1077.47 498.659 1081.57 510.147 1081.77 522.03C1081.78 522.33 1081.78 522.6 1081.78 522.87Z" fill="#983949"/>
</g>
<path opacity="0.4" d="M551.94 446.45H408.96V463.7H551.94V446.45Z" fill="black"/>
<path opacity="0.4" d="M551.94 501.49H408.96V518.74H551.94V501.49Z" fill="black"/>
<path opacity="0.4" d="M551.94 556.54H408.96V573.79H551.94V556.54Z" fill="black"/>
<path d="M208.35 0.689964V604.69C204.05 604.163 199.764 603.587 195.49 602.96V0.0899658C199.78 0.169966 204.06 0.389964 208.35 0.689964Z" fill="#424C63"/>
<path d="M607.25 99.32V617.83L594.39 617.98V97.75C598.67 98.33 602.957 98.8533 607.25 99.32Z" fill="#424C63"/>
<path d="M1092.73 483.17H0.279785C0.676396 478.827 1.42214 474.523 2.50978 470.3H1077.59C1083.03 474.106 1088.1 478.415 1092.73 483.17V483.17Z" fill="#424C63"/>
<path d="M993.29 427.23C997.48 429.37 1001.79 431.45 1006.16 433.51V599.93C1001.88 600.65 997.58 601.3 993.29 601.93V427.23Z" fill="#424C63"/>
<path d="M391.85 327.57C392.739 327.57 393.46 326.849 393.46 325.96C393.46 325.071 392.739 324.35 391.85 324.35C390.961 324.35 390.24 325.071 390.24 325.96C390.24 326.849 390.961 327.57 391.85 327.57Z" fill="#E7EFFD"/>
<path d="M759.02 183.73C759.909 183.73 760.63 183.009 760.63 182.12C760.63 181.231 759.909 180.51 759.02 180.51C758.131 180.51 757.41 181.231 757.41 182.12C757.41 183.009 758.131 183.73 759.02 183.73Z" fill="#E7EFFD"/>
<path d="M920.81 259.98C921.699 259.98 922.42 259.259 922.42 258.37C922.42 257.481 921.699 256.76 920.81 256.76C919.921 256.76 919.2 257.481 919.2 258.37C919.2 259.259 919.921 259.98 920.81 259.98Z" fill="#E7EFFD"/>
<path d="M667.43 273.79C668.319 273.79 669.04 273.069 669.04 272.18C669.04 271.291 668.319 270.57 667.43 270.57C666.541 270.57 665.82 271.291 665.82 272.18C665.82 273.069 666.541 273.79 667.43 273.79Z" fill="#E7EFFD"/>
<path d="M337.33 229.81H334.87V227.35H334.43V229.81H331.97V230.25H334.43V232.71H334.87V230.25H337.33V229.81Z" fill="#E7EFFD"/>
<path d="M848.61 178.68H846.15V176.22H845.7V178.68H843.25V179.12H845.7V181.58H846.15V179.12H848.61V178.68Z" fill="#E7EFFD"/>
<path d="M395.6 168.73H393.14V166.27H392.69V168.73H390.24V169.18H392.69V171.63H393.14V169.18H395.6V168.73Z" fill="#E7EFFD"/>
<path d="M715.32 543.17C715.32 543.17 681.01 551.47 667.43 567C662.88 572.19 656.13 575.93 649.16 578.6V555.17C657.01 541.99 664.92 527.33 664.92 527.33C665.28 526.61 668.14 516.5 668.14 516.5C674.58 511.44 667.78 493.76 667.78 493.76C667.78 493.76 671.72 482.57 669.57 480.4C667.42 478.23 669.21 472.46 671 469.93C672.79 467.4 672.43 464.15 672.43 461.99C672.43 459.83 669.57 456.57 664.92 454.77C660.27 452.97 665.28 450.08 668.14 449.35C671 448.62 671.72 441.77 668.5 438.16C665.28 434.55 668.86 432.39 670.64 428.42C672.42 424.45 664.89 425.17 664.89 425.17V388.67C664.89 388.67 662.74 376.76 660.6 355.82C658.46 334.88 650.23 332.72 650.23 332.72C645.822 331.351 641.52 329.66 637.36 327.66C632.979 325.607 628.437 323.918 623.78 322.61C623.78 322.61 614.13 322.61 606.26 320.19C598.39 317.77 594.31 317.6 594.31 317.6L593.02 316.96C583.342 312.039 575.675 303.909 571.33 293.96C571.11 293.46 570.91 292.96 570.71 292.48C572.847 290.138 574.759 287.6 576.42 284.9V284.84C576.42 285.21 576.42 285.58 576.42 285.95C576.42 286.1 576.42 286.26 576.42 286.41C576.42 287.3 576.42 288.19 576.42 289.08V289.17C582.12 279.1 598.66 276.8 600.23 265.3C600.301 264.776 600.338 264.248 600.34 263.72V263.65C600.34 263.27 600.34 262.88 600.34 262.49C600.13 259.28 599.03 256.08 598.82 252.84C598.75 251.911 598.75 250.979 598.82 250.05V250.11C599.56 241.18 606.29 233.41 609.37 224.74C610.198 222.408 610.739 219.983 610.98 217.52V217.45C611.06 216.71 611.11 215.96 611.13 215.21C611.13 215.03 611.13 214.84 611.13 214.66C611.13 214.14 611.13 213.66 611.13 213.1C611.036 208.487 609.999 203.942 608.081 199.746C606.163 195.549 603.406 191.79 599.98 188.7C594.28 183.75 586.75 180.64 582.8 174.17C580.96 171.17 580.06 167.61 578.05 164.71C574.27 159.23 567.33 157 560.76 156.21C554.19 155.42 547.44 155.68 541.16 153.62C536.7 152.16 532.66 149.57 528.16 148.27C523.257 146.958 518.07 147.177 513.296 148.899C508.521 150.62 504.387 153.761 501.45 157.9C499.08 161.36 497.53 165.5 494.33 168.2C487.78 173.74 476.67 171.34 470.93 177.72C467.78 181.23 467.42 186.01 467.8 190.89C467.8 190.95 467.8 191.01 467.8 191.07C467.8 191.44 467.87 191.82 467.91 192.2C467.91 192.38 467.91 192.56 467.91 192.73C467.91 192.9 467.91 193.11 467.98 193.3C468.18 195.05 468.43 196.79 468.65 198.47C468.65 198.73 468.71 198.98 468.74 199.24L468.92 200.81C468.92 201.19 468.98 201.57 469.02 201.95C469.06 202.33 469.09 202.95 469.12 203.37C469.15 203.79 469.12 204.11 469.19 204.49C469.831 217.816 467.006 231.081 460.99 242.99C455.58 253.6 447.54 263.38 446.14 275.23C445.922 277.172 445.869 279.129 445.98 281.08C445.98 281.31 445.98 281.54 445.98 281.77C445.98 282 446.04 282.47 446.07 282.82C446.1 283.17 446.15 283.63 446.2 284.03C446.2 284.26 446.26 284.49 446.29 284.72C446.36 285.25 446.44 285.78 446.53 286.32L446.59 286.66C448.01 294.74 451.23 302.66 452.94 310.82C453.581 313.829 454.009 316.88 454.22 319.95C454.215 319.97 454.215 319.99 454.22 320.01C454.28 321.01 454.33 321.96 454.36 322.94C454.36 324.26 454.36 325.59 454.36 326.94C451.645 327.983 448.862 328.838 446.03 329.5C441.03 330.22 426.36 343.22 427.43 346.5C428.5 349.78 420.87 372.5 420.66 373.19L408.66 456.19C408.66 456.19 402.29 462.33 404.28 466.3C406.27 470.27 403.89 477.13 403.89 477.13C403.89 477.13 393.13 481.82 395.52 484.71C397.91 487.6 396.82 493.01 395.18 496.62C393.54 500.23 390.85 506.73 395.18 507.81C399.51 508.89 395.92 522.98 395.92 522.98C395.92 522.98 411.01 521.24 409.92 530.2C409.56 533.05 420.47 540.89 425.02 544.03V587.17C418.91 585.46 411.73 583.24 407.15 581.1C397.86 576.77 345.67 568.47 334.23 593.38C322.79 618.29 349.96 651.5 356.75 655.11C356.75 655.11 363.19 660.16 364.62 662.69C366.05 665.22 374.27 665.94 374.27 665.94C374.27 665.94 382.85 669.94 384.99 672.07C386.57 673.67 399.64 677.82 415.13 681.07C415.13 681.07 402.62 709.87 423.03 707.5C443.44 705.13 453.38 695.08 467.77 695.08C473.52 695.08 484.2 694.27 494.95 693.31C497.65 693.788 500.321 694.419 502.95 695.2C509.006 697.104 515.226 698.443 521.53 699.2C521.53 699.2 537.62 707.86 546.2 705.69C546.907 705.491 547.567 705.151 548.14 704.69H548.34C549.9 704.3 551.67 702.69 553.51 700.26C564.24 701.36 576.51 702.92 581.07 704.7C589.96 708.13 653.55 703.38 653.55 703.38C653.55 703.38 694.63 704.19 706.4 707.75C718.17 711.31 713.99 671.4 692.27 666.91C686.472 665.747 680.573 665.164 674.66 665.17C676.164 663.618 677.539 661.946 678.77 660.17C686.59 659.46 691.77 659.02 691.77 659.02C691.77 659.02 712.5 648.91 724.3 642.77C731.834 638.672 738.601 633.299 744.3 626.89C744.3 626.89 754.66 620.39 758.95 617.89C763.24 615.39 765.38 607.06 765.38 607.06C797.89 533.41 715.32 543.17 715.32 543.17ZM622.24 450.79C622.24 449.58 622.24 448.36 622.24 447.15C623.4 447.97 623.23 449.26 622.24 450.78V450.79ZM622.58 476.32C623.45 477.46 624.29 478.5 624.89 479.32C627.2 482.32 623.02 483.72 623.32 488.69C623.39 489.8 623.49 491.35 623.59 493.07C623.15 485.9 622.79 480 622.58 476.31V476.32Z" fill="url(#paint1_linear)"/>
<path d="M436.52 590.24C436.52 590.24 416.52 585.59 407.21 581.3C397.9 577.01 345.73 568.79 334.29 593.46C322.85 618.13 350.02 651 356.81 654.58C363.6 658.16 429.73 609.17 429.73 609.17L481.89 631.17L491.89 597.03L436.52 590.24Z" fill="#252D3E"/>
<path d="M648.83 597.03H495.42C475.079 597.03 458.59 613.519 458.59 633.86V639.19C458.59 659.531 475.079 676.02 495.42 676.02H648.83C669.171 676.02 685.66 659.531 685.66 639.19V633.86C685.66 613.519 669.171 597.03 648.83 597.03Z" fill="#252D3E"/>
<path opacity="0.1" d="M685.66 636.52C685.667 644.289 683.378 651.888 679.08 658.36C677.618 660.553 675.943 662.596 674.08 664.46C670.416 668.134 666.063 671.047 661.27 673.033C656.476 675.018 651.338 676.037 646.15 676.03H498.09C487.614 676.03 477.567 671.868 470.159 664.461C462.751 657.053 458.59 647.006 458.59 636.53C458.59 626.054 462.751 616.007 470.159 608.599C477.567 601.192 487.614 597.03 498.09 597.03H646.16C656.634 597.03 666.68 601.19 674.087 608.596C681.494 616.001 685.657 626.046 685.66 636.52Z" fill="#252D3E"/>
<path d="M562.03 638.83C562.03 638.83 539.26 644.68 520.68 644.42C502.1 644.16 415.19 680.27 415.19 680.27C415.19 680.27 402.68 708.79 423.09 706.43C443.5 704.07 453.44 694.17 467.83 694.17C482.22 694.17 527.49 689.17 527.49 689.17L571.05 656.99L562.03 638.83Z" fill="#FBBEBE"/>
<path d="M576.28 369.7L535.44 377.75L532.79 378.28C532.79 378.28 500.5 369.7 499.43 368.98C498.36 368.26 469.05 328.77 469.05 328.77C469.05 328.77 483.87 328.93 495.51 322.22C495.93 321.98 496.34 321.72 496.75 321.47C501.868 318.383 505.757 313.615 507.75 307.98C507.96 307.39 508.14 306.78 508.31 306.14C509.55 301.36 509.63 295.57 507.97 288.56C503.97 271.89 513.17 267.3 525.36 267.7C542.97 268.28 566.94 279.27 566.94 279.27C567.25 284.88 568.526 290.394 570.71 295.57C570.9 296.05 571.11 296.57 571.33 297.03C575.703 306.899 583.37 314.942 593.02 319.78L594.31 320.42C595.61 321.04 596.98 321.63 598.4 322.16C629.54 333.96 576.28 369.7 576.28 369.7Z" fill="#FBBEBE"/>
<path opacity="0.1" d="M571.37 297.03C563.603 305.823 553.068 311.701 541.506 313.692C529.945 315.683 518.05 313.668 507.79 307.98C509.55 302.86 509.88 296.49 508.01 288.56C498.36 247.81 567.01 279.27 567.01 279.27C567.348 285.409 568.827 291.432 571.37 297.03V297.03Z" fill="black"/>
<path d="M584.26 260.83C584.277 270.46 581.573 279.899 576.46 288.06C574.796 290.736 572.884 293.251 570.75 295.57C561.743 305.442 549.232 311.4 535.89 312.17C534.89 312.24 533.82 312.27 532.78 312.27C522.6 312.27 512.649 309.251 504.185 303.596C495.721 297.94 489.124 289.902 485.228 280.497C481.332 271.092 480.313 260.743 482.299 250.759C484.285 240.774 489.187 231.603 496.385 224.405C503.584 217.207 512.755 212.305 522.739 210.319C532.723 208.333 543.072 209.352 552.477 213.248C561.882 217.144 569.92 223.741 575.576 232.205C581.231 240.669 584.25 250.62 584.25 260.8L584.26 260.83Z" fill="#FBBEBE"/>
<path opacity="0.1" d="M576.28 369.7L535.44 377.75L532.79 378.28C532.79 378.28 500.5 369.7 499.43 368.98C498.36 368.26 469.05 328.77 469.05 328.77C469.05 328.77 483.87 328.93 495.51 322.22C495.93 321.98 496.34 321.72 496.75 321.47C500.45 325.47 512.56 336.78 531.59 336.7C534.033 336.701 536.473 336.524 538.89 336.17C544.63 335.29 550.42 334.72 556.2 334.17C567.27 333.01 584.2 329.65 593.09 319.87L594.38 320.51C595.68 321.13 597.05 321.72 598.47 322.25C629.54 333.96 576.28 369.7 576.28 369.7Z" fill="black"/>
<path d="M622.39 474.07C622.74 481.94 628.47 570.58 628.47 570.58H450.1L451.31 514.77L452.31 470.13L452.63 455.48L454.06 404.73L448.89 400.17L420.79 375.41C421 374.75 428.62 352.16 427.56 348.98C426.5 345.8 441.15 332.9 446.16 332.18C449.007 331.519 451.807 330.667 454.54 329.63C462.97 326.63 474.22 322.31 475.46 322.99C477.21 323.93 494.75 322.3 495.46 322.23C495.46 322.23 508.4 338.96 531.52 338.86C533.954 338.848 536.385 338.654 538.79 338.28C544.53 337.4 550.32 336.83 556.1 336.23C567.73 335.02 585.81 331.37 594.28 320.43C594.28 320.43 598.37 320.6 606.23 322.99C614.09 325.38 623.75 325.39 623.75 325.39C628.405 326.685 632.947 328.357 637.33 330.39C641.493 332.367 645.794 334.038 650.2 335.39C650.2 335.39 658.42 337.53 660.57 358.26C662.72 378.99 664.89 390.79 664.89 390.79L622.39 427.6C622.39 427.6 622.04 466.17 622.39 474.07Z" fill="#E5566E"/>
<path d="M420.8 535.91L427.05 545.92L450.46 554.17L466.55 524.83L451.72 514.82L427.95 505.53L414.37 513.39L420.8 535.91Z" fill="#FBBEBE"/>
<path d="M620.6 585.23C620.6 585.23 653.84 582.73 667.43 567.36C681.02 551.99 715.32 543.77 715.32 543.77C715.32 543.77 797.89 534.12 765.32 607.04C765.32 607.04 763.18 615.26 758.89 617.76C754.6 620.26 744.24 626.7 744.24 626.7L617.41 615.62L620.6 585.23Z" fill="#252D3E"/>
<path opacity="0.1" d="M685.66 636.52C685.667 644.289 683.378 651.888 679.08 658.36C657.74 660.25 610.48 664.69 600.59 667.45C588.44 670.82 563.85 664.95 561.16 664.29L560.91 664.23C560.91 664.23 556.17 649.85 553.91 640.65C552.91 636.47 552.38 633.36 553.04 633.13C555.19 632.42 574.85 627.05 574.49 630.13C574.13 633.21 633.49 607.07 633.49 607.07L635.31 629.95C641.34 636.85 685.66 626.59 685.66 636.52Z" fill="black"/>
<path d="M746.78 617.4L744.28 626.7C738.569 633.054 731.803 638.372 724.28 642.42C712.48 648.5 691.75 658.51 691.75 658.51C691.75 658.51 615.62 664.94 602.75 668.51C589.88 672.08 563.07 665.29 563.07 665.29C563.07 665.29 553.07 634.91 555.21 634.19C557.35 633.47 577.01 628.12 576.66 631.19C576.31 634.26 635.66 608.13 635.66 608.13L746.78 617.4Z" fill="#252D3E"/>
<path d="M534.81 697.54C534.81 697.54 572.23 700.15 581.13 703.54C590.03 706.93 653.61 702.24 653.61 702.24C653.61 702.24 694.69 703.04 706.46 706.56C718.23 710.08 714.05 670.56 692.33 666.13C670.61 661.7 640 668.22 640 668.22C640 668.22 605.46 663.77 601.27 663.22C597.08 662.67 569.49 663.47 569.49 663.47L534.81 697.54Z" fill="#FBBEBE"/>
<path opacity="0.1" d="M387.76 598.89C387.76 598.89 437.22 603.34 450.82 611.45L387.76 598.89Z" fill="black"/>
<path opacity="0.1" d="M696.26 566.45C696.26 566.45 657.53 575.87 642.35 589.73L696.26 566.45Z" fill="black"/>
<path opacity="0.1" d="M390.64 587.64C391.43 587.9 413.41 590.78 412.88 592.87C412.35 594.96 390.64 587.64 390.64 587.64Z" fill="black"/>
<path opacity="0.1" d="M356.1 642.78L358.96 653.51C358.96 653.51 365.39 658.51 366.82 661.01C368.25 663.51 376.47 664.23 376.47 664.23C376.47 664.23 385.05 668.16 387.2 670.3C389.35 672.44 412.57 679.24 434.38 682.1C456.19 684.96 496.57 690.32 505.15 693.18C511.212 695.06 517.436 696.376 523.74 697.11C523.74 697.11 539.82 705.69 548.4 703.55C556.98 701.41 571.63 662.44 571.63 662.44C571.63 662.44 515.16 649.22 513.37 644.93C511.58 640.64 457.25 620.63 457.25 620.63L425.08 621.39L356.1 642.78Z" fill="black"/>
<path d="M353.95 643.85L356.81 654.58C356.81 654.58 363.25 659.58 364.68 662.08C366.11 664.58 374.33 665.3 374.33 665.3C374.33 665.3 382.91 669.23 385.05 671.38C387.19 673.53 410.43 680.31 432.23 683.17C454.03 686.03 494.43 691.39 503.01 694.25C509.07 696.124 515.29 697.436 521.59 698.17C521.59 698.17 537.68 706.74 546.26 704.6C554.84 702.46 569.49 663.49 569.49 663.49C569.49 663.49 513.01 650.27 511.23 645.98C509.45 641.69 429.73 609.17 429.73 609.17L404.73 603.45L353.95 643.85Z" fill="#252D3E"/>
<path d="M427.04 371.84L420.79 375.42L408.79 457.63C408.79 457.63 402.42 463.71 404.41 467.63C406.4 471.55 404.02 478.35 404.02 478.35C404.02 478.35 393.26 483 395.65 485.86C398.04 488.72 396.95 494.08 395.31 497.65C393.67 501.22 390.98 507.65 395.31 508.73C399.64 509.81 396.05 523.73 396.05 523.73C396.05 523.73 411.14 522.01 410.05 530.87C409.6 534.45 427.11 545.87 427.11 545.87C427.11 545.87 407.21 509.77 451.79 514.77L455.62 494.42C455.62 494.42 459.45 482.96 455.62 479.42C451.79 475.88 456.48 458.87 456.48 458.87L457.32 385.06L427.04 371.84Z" fill="#E5566E"/>
<path opacity="0.1" d="M417.33 478.01C418.12 479.32 442.19 482.01 443.76 486.28C445.33 490.55 417.33 478.01 417.33 478.01Z" fill="black"/>
<path opacity="0.1" d="M409.74 498.42C409.74 498.42 413.01 488.21 420.74 490.04C428.47 491.87 409.74 498.42 409.74 498.42Z" fill="black"/>
<path opacity="0.1" d="M405.56 513.33C405.56 513.33 411.31 499.72 419.16 500.77C427.01 501.82 405.56 513.33 405.56 513.33Z" fill="black"/>
<path d="M667.43 513.03L664.92 528.03C664.92 528.03 639.19 575.22 634.54 575.93C629.89 576.64 604.54 544.48 604.54 544.48L597.75 513.02L624.48 507.95L636.35 496.22C636.35 496.22 666.35 499.09 667.43 513.03Z" fill="#FBBEBE"/>
<path d="M655.27 384L664.92 390.79V426.89C664.92 426.89 672.43 426.17 670.64 430.11C668.85 434.05 665.28 436.18 668.5 439.76C671.72 443.34 671 450.12 668.14 450.84C665.28 451.56 660.28 454.41 664.92 456.2C669.56 457.99 672.43 461.2 672.43 463.35C672.43 465.5 672.79 468.71 671 471.21C669.21 473.71 667.43 479.43 669.57 481.58C671.71 483.73 667.78 494.8 667.78 494.8C667.78 494.8 674.58 512.32 668.14 517.32C668.14 517.32 665.28 527.32 664.92 528.04C664.92 528.04 669.43 493.25 624.46 507.96C624.46 507.96 623.63 494.7 623.32 489.79C623.01 484.88 627.2 483.44 624.89 480.51C622.58 477.58 616.8 470.85 619.53 469.07C622.26 467.29 621.32 464.07 620.24 461.56C619.16 459.05 615.39 459.06 618.81 456.02C622.23 452.98 624.26 450.13 622.25 448.7C620.24 447.27 616.75 442.61 619.53 440.47C622.31 438.33 622.39 407.23 622.39 407.23C622.39 407.23 633.83 361.48 655.27 384Z" fill="#E5566E"/>
<path opacity="0.1" d="M650.73 445.5C650.73 445.5 664.47 441.77 664.92 445.5C665.37 449.23 650.73 445.5 650.73 445.5Z" fill="black"/>
<path opacity="0.1" d="M635.29 455.77C635.29 455.77 654.13 451.06 656.48 454.72C658.83 458.38 635.29 455.77 635.29 455.77Z" fill="black"/>
<path opacity="0.1" d="M631.1 465.71C631.1 465.71 659.36 461.78 661.19 467.54C663.02 473.3 631.1 465.71 631.1 465.71Z" fill="black"/>
<path opacity="0.1" d="M635.29 478.01C636.34 478.27 662.5 480.1 663.02 485.07C663.54 490.04 635.29 478.01 635.29 478.01Z" fill="black"/>
<path d="M638.7 494.12H435.56C429.777 494.12 425.09 498.808 425.09 504.59V610.92C425.09 616.702 429.777 621.39 435.56 621.39H638.7C644.482 621.39 649.17 616.702 649.17 610.92V504.59C649.17 498.808 644.482 494.12 638.7 494.12Z" fill="#565E73"/>
<path d="M537.13 566.02C541.692 566.02 545.39 562.322 545.39 557.76C545.39 553.198 541.692 549.5 537.13 549.5C532.568 549.5 528.87 553.198 528.87 557.76C528.87 562.322 532.568 566.02 537.13 566.02Z" fill="#E7EFFD"/>
<path opacity="0.1" d="M462.61 416.11C462.61 416.11 484.09 432.53 500.7 420.02C500.7 420.02 472.62 422.57 462.61 416.11Z" fill="black"/>
<path opacity="0.1" d="M571.37 420.53C571.37 420.53 592.84 436.94 609.45 424.43C609.45 424.43 581.38 426.99 571.37 420.53Z" fill="black"/>
<path opacity="0.1" d="M584.26 260.83C584.277 270.46 581.573 279.899 576.46 288.06C576.03 273.73 572.66 259.39 564.86 247.42C557.72 236.42 536.01 217.23 521.09 222.58C519.529 223.152 518.126 224.084 516.993 225.3C515.86 226.517 515.03 227.983 514.57 229.58C513.09 235.2 517.42 237.58 520.2 242.01C524.914 249.686 526.756 258.784 525.4 267.69C525.211 268.889 524.96 270.077 524.65 271.25C522.3 280.07 516.92 290.16 522.47 297.39C526.34 302.39 534.66 304.17 535.79 310.39C535.893 310.977 535.927 311.575 535.89 312.17C535.63 316.38 532.04 320.09 530.47 324.22C528.63 329.09 529.67 333.93 531.58 338.82C534.06 345.2 538.02 351.65 538.98 358.39C539.94 365.13 537.87 371.39 535.43 377.72C533.12 383.72 530.43 389.67 529.53 395.92C527.8 407.8 532.16 421.54 524.68 430.92C523.92 432.055 522.746 432.848 521.41 433.13C516.62 433.63 517.41 425.02 513.58 422.13C513.99 427.13 514.38 432.35 512.58 437.03C510.78 441.71 506.04 445.69 501.08 444.9L499.37 433.67C495.995 436.993 491.933 439.535 487.47 441.12C489.227 429.178 493.457 417.734 499.89 407.52C487.3 413.58 479.96 426.7 473.41 439.04C469.33 446.75 465.1 455.17 466.53 463.78C467.11 467.29 468.62 470.63 468.95 474.16C469.28 477.69 468 481.82 464.71 483.16C461.84 484.33 458.49 482.93 456.42 480.59L456.06 480.16C455.86 479.9 455.67 479.63 455.49 479.36C455.133 478.817 454.815 478.249 454.54 477.66C453.646 475.546 452.976 473.344 452.54 471.09L452.32 470.09C448.99 455.48 445.99 440.41 448.43 425.63C449.33 420.19 450.97 414.79 450.77 409.27C450.62 406.158 449.986 403.087 448.89 400.17C445.97 391.99 440.35 384.48 437.15 376.24C437.115 376.184 437.088 376.123 437.07 376.06C435.39 371.7 434.56 366.25 437.67 362.75C439.27 360.94 441.67 360.03 443.67 358.75C449.89 354.7 452.67 347.01 453.82 339.67C454.338 336.362 454.598 333.019 454.6 329.67C463.03 326.67 474.28 322.35 475.52 323.03C477.27 323.97 494.81 322.34 495.52 322.27C500.86 319.19 505.52 314.66 507.8 308.03C508.01 307.44 508.19 306.83 508.36 306.19C500.354 301.87 493.636 295.506 488.89 287.745C484.144 279.984 481.539 271.103 481.342 262.008C481.145 252.913 483.362 243.928 487.767 235.969C492.172 228.009 498.609 221.36 506.42 216.697C514.232 212.034 523.139 209.526 532.236 209.426C541.333 209.326 550.293 211.639 558.205 216.129C566.117 220.62 572.697 227.127 577.276 234.988C581.854 242.849 584.268 251.783 584.27 260.88L584.26 260.83Z" fill="black"/>
<path d="M524.65 269.11C522.29 277.93 516.92 288.02 522.48 295.26C526.35 300.26 534.67 302.03 535.78 308.26C536.67 313.26 532.26 317.38 530.48 322.08C526.24 333.31 537.3 344.35 538.98 356.24C540.81 369.14 531.41 380.89 529.54 393.78C527.81 405.66 532.17 419.39 524.69 428.78C523.934 429.919 522.759 430.714 521.42 430.99C516.63 431.5 517.42 422.89 513.59 419.99C514 424.99 514.39 430.21 512.59 434.89C510.79 439.57 506.05 443.54 501.09 442.76L499.38 431.52C496.006 434.843 491.943 437.387 487.48 438.97C489.237 427.032 493.463 415.592 499.89 405.38C487.3 411.44 479.97 424.56 473.42 436.89C469.33 444.6 465.11 453.03 466.53 461.64C467.11 465.15 468.62 468.48 468.95 472.02C469.28 475.56 468 479.67 464.71 481.02C461.71 482.27 458.08 480.61 456.06 478.02C454.04 475.43 453.26 472.13 452.53 468.94C449.11 454.02 445.92 438.62 448.41 423.52C449.31 418.07 450.95 412.67 450.75 407.16C450.32 395.09 441.41 385.16 437.07 373.93C435.38 369.56 434.56 364.12 437.67 360.62C439.27 358.81 441.67 357.9 443.67 356.62C449.88 352.56 452.67 344.88 453.81 337.54C455.038 329.605 454.811 321.513 453.14 313.66C450.63 301.91 444.87 290.43 446.3 278.5C447.7 266.76 455.74 257.08 461.15 246.57C468.11 232.967 470.781 217.573 468.81 202.42C467.88 195.37 466.25 187.21 471.03 181.94C476.77 175.62 487.88 178 494.43 172.52C497.63 169.85 499.18 165.74 501.55 162.32C504.511 158.211 508.651 155.099 513.421 153.396C518.191 151.692 523.365 151.477 528.26 152.78C532.76 154.07 536.8 156.63 541.26 158.08C547.54 160.08 554.26 159.86 560.86 160.65C567.46 161.44 574.37 163.65 578.15 169.06C580.15 171.94 581.06 175.45 582.9 178.43C586.85 184.83 594.38 187.91 600.08 192.82C604.968 197.178 608.464 202.88 610.132 209.212C611.8 215.545 611.566 222.229 609.46 228.43C606.06 237.9 598.19 246.28 598.86 256.32C599.13 260.45 600.86 264.5 600.32 268.59C598.74 279.98 582.21 282.25 576.5 292.23C576.96 275.87 573.82 259.02 564.89 245.31C557.75 234.31 536.04 215.11 521.12 220.46C519.561 221.035 518.159 221.968 517.026 223.183C515.894 224.399 515.063 225.864 514.6 227.46C513.12 233.07 517.45 235.46 520.23 239.89C522.891 244.214 524.654 249.03 525.414 254.05C526.173 259.07 525.913 264.192 524.65 269.11Z" fill="#252D3E"/>
<path d="M1006.16 43.74V254.5C1001.86 258.86 997.55 263.21 993.29 267.59V38.35L1006.16 43.74Z" fill="#424C63"/>
<path d="M1077.8 142.07C1077.8 142.113 1077.8 142.157 1077.8 142.2H56.15C55.683 137.927 55.5059 133.627 55.62 129.33H1077.46C1077.94 133.559 1078.05 137.821 1077.8 142.07V142.07Z" fill="#424C63"/>
<path d="M826.89 561.17C826.89 561.17 820.1 592.8 850.32 596.55L852.19 593.04C852.19 593.04 828.79 571.04 826.89 561.17Z" fill="#CE4D63"/>
<path d="M861.83 592.83L854.83 594.32L854.13 594.47C854.13 594.47 835.38 579.25 835.62 545.27C838.129 550.277 841.127 555.023 844.57 559.44C851.98 569.27 860.43 582.4 861.83 592.83Z" fill="#CE4D63"/>
<path d="M864.21 596.09C863.656 596.448 863.029 596.678 862.376 596.762C861.722 596.847 861.057 596.785 860.43 596.58C842.43 592.36 848.48 533.58 848.48 533.58C849.48 534.05 850.57 541.58 854.72 551.18C862 568.17 870 591.83 864.21 596.09Z" fill="#CE4D63"/>
<path d="M904.23 561.17C904.23 561.17 905.4 592.8 875.18 596.55L873.31 593.04C873.31 593.04 902.36 571.04 904.23 561.17Z" fill="#CE4D63"/>
<path d="M895.57 545.27C895.79 579.27 871.43 594.47 871.43 594.47L870.73 594.32L863.73 592.83C865.12 582.4 873.59 569.27 881.01 559.44C885.207 554.086 890.104 549.32 895.57 545.27V545.27Z" fill="#CE4D63"/>
<path d="M870.62 593.01C869.539 594.328 868.171 595.382 866.62 596.09C866.148 596.302 865.655 596.466 865.15 596.58C860.71 597.58 859.15 594.42 859.41 588.98C859.83 579.29 865.92 562.49 871.41 549.98C875.35 540.92 881.78 534.06 882.74 533.61C882.68 533.56 882.41 579.35 870.62 593.01Z" fill="#CE4D63"/>
<path d="M865.58 512.94C865.58 512.94 845.43 584.4 862.77 595.18C880.11 605.96 870.03 519.27 865.58 512.94Z" fill="#CE4D63"/>
<path opacity="0.1" d="M826.89 561.17C826.89 561.17 820.1 592.8 850.32 596.55L852.19 593.04C852.19 593.04 828.79 571.04 826.89 561.17Z" fill="#CE4D63"/>
<path opacity="0.1" d="M861.83 592.83L854.83 594.32L854.13 594.47C854.13 594.47 835.38 579.25 835.62 545.27C838.129 550.277 841.127 555.023 844.57 559.44C851.98 569.27 860.43 582.4 861.83 592.83Z" fill="#E5566E"/>
<path opacity="0.1" d="M864.21 596.09C863.656 596.448 863.029 596.678 862.376 596.762C861.722 596.847 861.057 596.785 860.43 596.58C842.43 592.36 848.48 533.58 848.48 533.58C849.48 534.05 850.57 541.58 854.72 551.18C862 568.17 870 591.83 864.21 596.09Z" fill="#E5566E"/>
<path opacity="0.1" d="M904.23 561.17C904.23 561.17 905.4 592.8 875.18 596.55L873.31 593.04C873.31 593.04 902.36 571.04 904.23 561.17Z" fill="#E5566E"/>
<path opacity="0.1" d="M895.57 545.27C895.79 579.27 871.43 594.47 871.43 594.47L870.73 594.32L863.73 592.83C865.12 582.4 873.59 569.27 881.01 559.44C885.207 554.086 890.104 549.32 895.57 545.27V545.27Z" fill="#E5566E"/>
<path opacity="0.1" d="M870.62 593.01C869.539 594.328 868.171 595.382 866.62 596.09C866.148 596.302 865.655 596.466 865.15 596.58C860.71 597.58 859.15 594.42 859.41 588.98C859.83 579.29 865.92 562.49 871.41 549.98C875.35 540.92 881.78 534.06 882.74 533.61C882.68 533.56 882.41 579.35 870.62 593.01Z" fill="#E5566E"/>
<path opacity="0.1" d="M865.58 512.94C865.58 512.94 845.43 584.4 862.77 595.18C880.11 605.96 870.03 519.27 865.58 512.94Z" fill="#E5566E"/>
<path d="M826.89 561.17C826.89 561.17 822.89 592.8 853.13 596.55L855 593.04C855 593.04 828.79 571.04 826.89 561.17Z" fill="#E5566E"/>
<path d="M864.64 592.83L857.64 594.32L856.93 594.47C856.93 594.47 835.37 579.25 835.61 545.27C835.61 545.27 841.13 551.19 847.37 559.44C854.79 569.27 863.24 582.4 864.64 592.83Z" fill="#E5566E"/>
<path opacity="0.1" d="M864.64 592.83L857.64 594.32C850.97 588.47 848.33 573.2 847.37 559.44C854.79 569.27 863.24 582.4 864.64 592.83Z" fill="black"/>
<path d="M867.02 596.09C866.466 596.448 865.839 596.678 865.185 596.762C864.531 596.847 863.867 596.785 863.24 596.58C845.19 592.36 848.48 533.58 848.48 533.58C849.48 534.05 853.38 541.58 857.48 551.18C864.81 568.17 872.81 591.83 867.02 596.09Z" fill="#E5566E"/>
<path d="M904.23 561.17C904.23 561.17 908.23 592.8 877.99 596.55L876.12 593.04C876.12 593.04 902.36 571.04 904.23 561.17Z" fill="#E5566E"/>
<path d="M895.57 545.27C895.79 579.27 874.24 594.47 874.24 594.47L873.54 594.32L866.54 592.83C867.94 582.4 876.4 569.27 883.82 559.44C890.04 551.17 895.57 545.27 895.57 545.27Z" fill="#E5566E"/>
<path opacity="0.1" d="M883.79 559.44C882.89 572.28 880.54 586.44 874.84 593.01C874.442 593.481 874.008 593.919 873.54 594.32L866.54 592.83C867.89 582.4 876.37 569.27 883.79 559.44Z" fill="black"/>
<path d="M873.43 593.01C872.349 594.328 870.981 595.382 869.43 596.09C868.954 596.302 868.459 596.467 867.95 596.58C863.51 597.58 861.95 594.42 862.21 588.98C862.64 579.29 868.72 562.49 874.21 549.98C878.15 540.92 881.77 534.06 882.73 533.61C882.68 533.56 885.22 579.35 873.43 593.01Z" fill="#E5566E"/>
<path opacity="0.1" d="M867.02 596.09C865.999 596.085 865.005 595.767 864.17 595.18C855.68 589.89 855.51 570.04 857.53 551.18C864.81 568.17 872.81 591.83 867.02 596.09Z" fill="black"/>
<path opacity="0.1" d="M873.43 593.01C872.43 595.12 871.14 596.24 869.43 596.09C868.565 595.975 867.737 595.663 867.01 595.18C864.804 593.662 863.127 591.495 862.21 588.98C862.64 579.29 868.72 562.49 874.21 549.98C876.11 567.37 876.76 585.86 873.43 593.01Z" fill="black"/>
<path d="M865.58 512.94C865.58 512.94 848.24 584.4 865.58 595.18C882.92 605.96 870.03 519.27 865.58 512.94Z" fill="#E5566E"/>
<path d="M898.85 591.66H826.69V603.61H837.7L837.97 605.02L842.38 628.21H884.33L888.74 605.02L889.01 603.61H898.85V591.66Z" fill="#D4DFEC"/>
<path opacity="0.1" d="M898.82 591.66H826.66V603.61H837.67L837.94 605.02L842.35 628.21H884.3L888.71 605.02L888.98 603.61H898.82V591.66Z" fill="#F4BAB7"/>
<path d="M892.76 598.69L891.55 605.02L887.14 628.21H845.19L840.78 605.02L839.57 598.69H892.76Z" fill="#FFF9F9"/>
<path opacity="0.1" d="M892.76 598.69L891.55 605.02H840.78L839.57 598.69H892.76Z" fill="black"/>
<path d="M901.66 591.66H829.5V603.61H901.66V591.66Z" fill="#FFF9F9"/>
</g>
<defs>
<linearGradient id="paint0_linear" x1="676" y1="53" x2="688" y2="589" gradientUnits="userSpaceOnUse">
<stop offset="0.118176" stop-color="#3F3D56"/>
<stop offset="0.504929" stop-color="#3F3D56" stop-opacity="0.4"/>
<stop offset="1" stop-color="#65617D" stop-opacity="0.1"/>
</linearGradient>
<linearGradient id="paint1_linear" x1="552.24" y1="707.8" x2="552.24" y2="147.37" gradientUnits="userSpaceOnUse">
<stop stop-color="#808080" stop-opacity="0.25"/>
<stop offset="0.54" stop-color="#808080" stop-opacity="0.12"/>
<stop offset="1" stop-color="#808080" stop-opacity="0.1"/>
</linearGradient>
<clipPath id="clip0">
<rect width="1109.79" height="748.34" fill="white"/>
</clipPath>
</defs>
</svg>
